<mxfile host="app.diagrams.net" modified="2024-06-05T23:23:34.789Z" agent="Mozilla/5.0 (X11; Linux x86_64) AppleWebKit/537.36 (KHTML, like Gecko) Chrome/125.0.0.0 Safari/537.36" etag="Cd5Y4RAmOh_ttD1IPk4G" version="24.4.13" type="github">
  <diagram name="Page-1" id="UYtyUtdFpJuhH1bbEbp8">
    <mxGraphModel dx="1434" dy="789" grid="1" gridSize="10" guides="1" tooltips="1" connect="1" arrows="1" fold="1" page="1" pageScale="1" pageWidth="850" pageHeight="1100" math="0" shadow="0">
      <root>
        <mxCell id="0" />
        <mxCell id="1" parent="0" />
        <mxCell id="fBPJly0HdnSGG2ilqovL-1" value="Partido" style="whiteSpace=wrap;html=1;align=center;" vertex="1" parent="1">
          <mxGeometry x="430" y="170" width="100" height="40" as="geometry" />
        </mxCell>
        <mxCell id="fBPJly0HdnSGG2ilqovL-6" style="edgeStyle=orthogonalEdgeStyle;rounded=1;orthogonalLoop=1;jettySize=auto;html=1;exitX=1;exitY=0.5;exitDx=0;exitDy=0;entryX=0;entryY=0.5;entryDx=0;entryDy=0;endArrow=none;endFill=0;curved=0;startArrow=ERzeroToMany;startFill=0;" edge="1" parent="1" source="fBPJly0HdnSGG2ilqovL-2" target="fBPJly0HdnSGG2ilqovL-5">
          <mxGeometry relative="1" as="geometry" />
        </mxCell>
        <mxCell id="fBPJly0HdnSGG2ilqovL-25" style="edgeStyle=orthogonalEdgeStyle;rounded=1;orthogonalLoop=1;jettySize=auto;html=1;exitX=0.5;exitY=1;exitDx=0;exitDy=0;entryX=0.5;entryY=0;entryDx=0;entryDy=0;endArrow=none;endFill=0;curved=0;" edge="1" parent="1" source="fBPJly0HdnSGG2ilqovL-2" target="fBPJly0HdnSGG2ilqovL-18">
          <mxGeometry relative="1" as="geometry" />
        </mxCell>
        <mxCell id="fBPJly0HdnSGG2ilqovL-26" style="edgeStyle=orthogonalEdgeStyle;rounded=1;orthogonalLoop=1;jettySize=auto;html=1;exitX=0.5;exitY=1;exitDx=0;exitDy=0;curved=0;endArrow=none;endFill=0;" edge="1" parent="1" source="fBPJly0HdnSGG2ilqovL-2" target="fBPJly0HdnSGG2ilqovL-16">
          <mxGeometry relative="1" as="geometry" />
        </mxCell>
        <mxCell id="fBPJly0HdnSGG2ilqovL-27" style="edgeStyle=orthogonalEdgeStyle;rounded=1;orthogonalLoop=1;jettySize=auto;html=1;exitX=0;exitY=0.5;exitDx=0;exitDy=0;entryX=1;entryY=0.5;entryDx=0;entryDy=0;endArrow=none;endFill=0;curved=0;" edge="1" parent="1" source="fBPJly0HdnSGG2ilqovL-2" target="fBPJly0HdnSGG2ilqovL-17">
          <mxGeometry relative="1" as="geometry" />
        </mxCell>
        <mxCell id="fBPJly0HdnSGG2ilqovL-29" style="edgeStyle=orthogonalEdgeStyle;rounded=1;orthogonalLoop=1;jettySize=auto;html=1;exitX=0.5;exitY=0;exitDx=0;exitDy=0;entryX=0.5;entryY=1;entryDx=0;entryDy=0;curved=0;endArrow=none;endFill=0;" edge="1" parent="1" source="fBPJly0HdnSGG2ilqovL-2" target="fBPJly0HdnSGG2ilqovL-28">
          <mxGeometry relative="1" as="geometry" />
        </mxCell>
        <mxCell id="fBPJly0HdnSGG2ilqovL-2" value="Jugador" style="whiteSpace=wrap;html=1;align=center;" vertex="1" parent="1">
          <mxGeometry x="160" y="360" width="100" height="40" as="geometry" />
        </mxCell>
        <mxCell id="fBPJly0HdnSGG2ilqovL-37" style="edgeStyle=orthogonalEdgeStyle;rounded=1;orthogonalLoop=1;jettySize=auto;html=1;exitX=1;exitY=0.5;exitDx=0;exitDy=0;entryX=0;entryY=0.5;entryDx=0;entryDy=0;curved=0;endArrow=none;endFill=0;" edge="1" parent="1" source="fBPJly0HdnSGG2ilqovL-3" target="fBPJly0HdnSGG2ilqovL-36">
          <mxGeometry relative="1" as="geometry" />
        </mxCell>
        <mxCell id="fBPJly0HdnSGG2ilqovL-38" style="edgeStyle=orthogonalEdgeStyle;rounded=1;orthogonalLoop=1;jettySize=auto;html=1;exitX=1;exitY=0.5;exitDx=0;exitDy=0;entryX=0;entryY=0.5;entryDx=0;entryDy=0;curved=0;endArrow=none;endFill=0;" edge="1" parent="1" source="fBPJly0HdnSGG2ilqovL-3" target="fBPJly0HdnSGG2ilqovL-30">
          <mxGeometry relative="1" as="geometry" />
        </mxCell>
        <mxCell id="fBPJly0HdnSGG2ilqovL-39" style="edgeStyle=orthogonalEdgeStyle;rounded=1;orthogonalLoop=1;jettySize=auto;html=1;exitX=1;exitY=0.5;exitDx=0;exitDy=0;entryX=0;entryY=0.5;entryDx=0;entryDy=0;curved=0;endArrow=none;endFill=0;" edge="1" parent="1" source="fBPJly0HdnSGG2ilqovL-3" target="fBPJly0HdnSGG2ilqovL-32">
          <mxGeometry relative="1" as="geometry" />
        </mxCell>
        <mxCell id="fBPJly0HdnSGG2ilqovL-40" style="edgeStyle=orthogonalEdgeStyle;rounded=1;orthogonalLoop=1;jettySize=auto;html=1;exitX=1;exitY=0.5;exitDx=0;exitDy=0;entryX=0;entryY=0.5;entryDx=0;entryDy=0;curved=0;endArrow=none;endFill=0;" edge="1" parent="1" source="fBPJly0HdnSGG2ilqovL-3" target="fBPJly0HdnSGG2ilqovL-34">
          <mxGeometry relative="1" as="geometry" />
        </mxCell>
        <mxCell id="fBPJly0HdnSGG2ilqovL-41" style="edgeStyle=orthogonalEdgeStyle;rounded=1;orthogonalLoop=1;jettySize=auto;html=1;exitX=1;exitY=0.5;exitDx=0;exitDy=0;entryX=0;entryY=0.5;entryDx=0;entryDy=0;curved=0;endArrow=none;endFill=0;" edge="1" parent="1" source="fBPJly0HdnSGG2ilqovL-3" target="fBPJly0HdnSGG2ilqovL-35">
          <mxGeometry relative="1" as="geometry" />
        </mxCell>
        <mxCell id="fBPJly0HdnSGG2ilqovL-3" value="Equipo" style="whiteSpace=wrap;html=1;align=center;" vertex="1" parent="1">
          <mxGeometry x="460" y="360" width="100" height="40" as="geometry" />
        </mxCell>
        <mxCell id="fBPJly0HdnSGG2ilqovL-14" style="edgeStyle=orthogonalEdgeStyle;rounded=1;orthogonalLoop=1;jettySize=auto;html=1;exitX=1;exitY=0.5;exitDx=0;exitDy=0;entryX=1;entryY=0.5;entryDx=0;entryDy=0;endArrow=none;endFill=0;curved=0;startArrow=ERzeroToOne;startFill=0;" edge="1" parent="1" source="fBPJly0HdnSGG2ilqovL-4" target="fBPJly0HdnSGG2ilqovL-12">
          <mxGeometry relative="1" as="geometry" />
        </mxCell>
        <mxCell id="fBPJly0HdnSGG2ilqovL-4" value="Entrenador" style="whiteSpace=wrap;html=1;align=center;" vertex="1" parent="1">
          <mxGeometry x="440" y="550" width="100" height="40" as="geometry" />
        </mxCell>
        <mxCell id="fBPJly0HdnSGG2ilqovL-7" style="edgeStyle=orthogonalEdgeStyle;rounded=1;orthogonalLoop=1;jettySize=auto;html=1;exitX=1;exitY=0.5;exitDx=0;exitDy=0;entryX=0;entryY=0.5;entryDx=0;entryDy=0;curved=0;endArrow=ERmandOne;endFill=0;" edge="1" parent="1" source="fBPJly0HdnSGG2ilqovL-5" target="fBPJly0HdnSGG2ilqovL-3">
          <mxGeometry relative="1" as="geometry" />
        </mxCell>
        <mxCell id="fBPJly0HdnSGG2ilqovL-5" value="Pertenece" style="shape=rhombus;perimeter=rhombusPerimeter;whiteSpace=wrap;html=1;align=center;" vertex="1" parent="1">
          <mxGeometry x="300" y="350" width="120" height="60" as="geometry" />
        </mxCell>
        <mxCell id="fBPJly0HdnSGG2ilqovL-10" style="edgeStyle=orthogonalEdgeStyle;rounded=1;orthogonalLoop=1;jettySize=auto;html=1;exitX=1;exitY=0.5;exitDx=0;exitDy=0;entryX=0.5;entryY=0;entryDx=0;entryDy=0;curved=0;endArrow=ERzeroToMany;endFill=0;startArrow=none;startFill=0;" edge="1" parent="1" source="fBPJly0HdnSGG2ilqovL-9" target="fBPJly0HdnSGG2ilqovL-3">
          <mxGeometry relative="1" as="geometry" />
        </mxCell>
        <mxCell id="fBPJly0HdnSGG2ilqovL-11" style="edgeStyle=orthogonalEdgeStyle;rounded=1;orthogonalLoop=1;jettySize=auto;html=1;exitX=0;exitY=0.5;exitDx=0;exitDy=0;entryX=1;entryY=0.5;entryDx=0;entryDy=0;curved=0;endArrow=ERoneToMany;endFill=0;" edge="1" parent="1" source="fBPJly0HdnSGG2ilqovL-9" target="fBPJly0HdnSGG2ilqovL-1">
          <mxGeometry relative="1" as="geometry" />
        </mxCell>
        <mxCell id="fBPJly0HdnSGG2ilqovL-9" value="Juega" style="shape=rhombus;perimeter=rhombusPerimeter;whiteSpace=wrap;html=1;align=center;" vertex="1" parent="1">
          <mxGeometry x="420" y="240" width="120" height="60" as="geometry" />
        </mxCell>
        <mxCell id="fBPJly0HdnSGG2ilqovL-15" style="edgeStyle=orthogonalEdgeStyle;rounded=1;orthogonalLoop=1;jettySize=auto;html=1;exitX=0;exitY=0.5;exitDx=0;exitDy=0;entryX=0.5;entryY=1;entryDx=0;entryDy=0;curved=0;endArrow=ERmandOne;endFill=0;" edge="1" parent="1" source="fBPJly0HdnSGG2ilqovL-12" target="fBPJly0HdnSGG2ilqovL-3">
          <mxGeometry relative="1" as="geometry" />
        </mxCell>
        <mxCell id="fBPJly0HdnSGG2ilqovL-12" value="Entrena" style="shape=rhombus;perimeter=rhombusPerimeter;whiteSpace=wrap;html=1;align=center;" vertex="1" parent="1">
          <mxGeometry x="430" y="460" width="120" height="60" as="geometry" />
        </mxCell>
        <mxCell id="fBPJly0HdnSGG2ilqovL-22" style="edgeStyle=orthogonalEdgeStyle;rounded=1;orthogonalLoop=1;jettySize=auto;html=1;exitX=0.5;exitY=1;exitDx=0;exitDy=0;entryX=0.5;entryY=0;entryDx=0;entryDy=0;curved=0;endArrow=none;endFill=0;" edge="1" parent="1" source="fBPJly0HdnSGG2ilqovL-16" target="fBPJly0HdnSGG2ilqovL-21">
          <mxGeometry relative="1" as="geometry" />
        </mxCell>
        <mxCell id="fBPJly0HdnSGG2ilqovL-23" style="edgeStyle=orthogonalEdgeStyle;rounded=1;orthogonalLoop=1;jettySize=auto;html=1;exitX=0.5;exitY=1;exitDx=0;exitDy=0;entryX=0.5;entryY=0;entryDx=0;entryDy=0;curved=0;endArrow=none;endFill=0;" edge="1" parent="1" source="fBPJly0HdnSGG2ilqovL-16" target="fBPJly0HdnSGG2ilqovL-20">
          <mxGeometry relative="1" as="geometry" />
        </mxCell>
        <mxCell id="fBPJly0HdnSGG2ilqovL-24" style="edgeStyle=orthogonalEdgeStyle;rounded=1;orthogonalLoop=1;jettySize=auto;html=1;exitX=0.5;exitY=1;exitDx=0;exitDy=0;entryX=0.5;entryY=0;entryDx=0;entryDy=0;curved=0;endArrow=none;endFill=0;" edge="1" parent="1" source="fBPJly0HdnSGG2ilqovL-16" target="fBPJly0HdnSGG2ilqovL-19">
          <mxGeometry relative="1" as="geometry" />
        </mxCell>
        <mxCell id="fBPJly0HdnSGG2ilqovL-16" value="fechaNacimiento" style="ellipse;whiteSpace=wrap;html=1;align=center;" vertex="1" parent="1">
          <mxGeometry x="160" y="470" width="100" height="40" as="geometry" />
        </mxCell>
        <mxCell id="fBPJly0HdnSGG2ilqovL-17" value="idJugador" style="ellipse;whiteSpace=wrap;html=1;align=center;fontStyle=4;" vertex="1" parent="1">
          <mxGeometry y="360" width="100" height="40" as="geometry" />
        </mxCell>
        <mxCell id="fBPJly0HdnSGG2ilqovL-18" value="nombre" style="ellipse;whiteSpace=wrap;html=1;align=center;" vertex="1" parent="1">
          <mxGeometry y="470" width="100" height="40" as="geometry" />
        </mxCell>
        <mxCell id="fBPJly0HdnSGG2ilqovL-19" value="anio" style="ellipse;whiteSpace=wrap;html=1;align=center;" vertex="1" parent="1">
          <mxGeometry x="270" y="570" width="100" height="40" as="geometry" />
        </mxCell>
        <mxCell id="fBPJly0HdnSGG2ilqovL-20" value="mes" style="ellipse;whiteSpace=wrap;html=1;align=center;" vertex="1" parent="1">
          <mxGeometry x="160" y="570" width="100" height="40" as="geometry" />
        </mxCell>
        <mxCell id="fBPJly0HdnSGG2ilqovL-21" value="dia" style="ellipse;whiteSpace=wrap;html=1;align=center;" vertex="1" parent="1">
          <mxGeometry x="50" y="570" width="100" height="40" as="geometry" />
        </mxCell>
        <mxCell id="fBPJly0HdnSGG2ilqovL-28" value="posicion" style="ellipse;shape=doubleEllipse;margin=3;whiteSpace=wrap;html=1;align=center;" vertex="1" parent="1">
          <mxGeometry x="160" y="250" width="100" height="40" as="geometry" />
        </mxCell>
        <mxCell id="fBPJly0HdnSGG2ilqovL-30" value="grado" style="ellipse;whiteSpace=wrap;html=1;align=center;" vertex="1" parent="1">
          <mxGeometry x="620" y="280" width="100" height="40" as="geometry" />
        </mxCell>
        <mxCell id="fBPJly0HdnSGG2ilqovL-31" value="apodoEstadio" style="ellipse;whiteSpace=wrap;html=1;align=center;" vertex="1" parent="1">
          <mxGeometry x="740" y="360" width="100" height="40" as="geometry" />
        </mxCell>
        <mxCell id="fBPJly0HdnSGG2ilqovL-42" style="edgeStyle=orthogonalEdgeStyle;rounded=1;orthogonalLoop=1;jettySize=auto;html=1;exitX=1;exitY=0.5;exitDx=0;exitDy=0;entryX=0;entryY=0.5;entryDx=0;entryDy=0;curved=0;endArrow=none;endFill=0;" edge="1" parent="1" source="fBPJly0HdnSGG2ilqovL-32" target="fBPJly0HdnSGG2ilqovL-33">
          <mxGeometry relative="1" as="geometry" />
        </mxCell>
        <mxCell id="fBPJly0HdnSGG2ilqovL-43" style="edgeStyle=orthogonalEdgeStyle;rounded=1;orthogonalLoop=1;jettySize=auto;html=1;exitX=1;exitY=0.5;exitDx=0;exitDy=0;entryX=0;entryY=0.5;entryDx=0;entryDy=0;curved=0;endArrow=none;endFill=0;" edge="1" parent="1" source="fBPJly0HdnSGG2ilqovL-32" target="fBPJly0HdnSGG2ilqovL-31">
          <mxGeometry relative="1" as="geometry" />
        </mxCell>
        <mxCell id="fBPJly0HdnSGG2ilqovL-32" value="estadio" style="ellipse;whiteSpace=wrap;html=1;align=center;" vertex="1" parent="1">
          <mxGeometry x="620" y="340" width="100" height="40" as="geometry" />
        </mxCell>
        <mxCell id="fBPJly0HdnSGG2ilqovL-33" value="nomEstadio" style="ellipse;whiteSpace=wrap;html=1;align=center;" vertex="1" parent="1">
          <mxGeometry x="740" y="310" width="100" height="40" as="geometry" />
        </mxCell>
        <mxCell id="fBPJly0HdnSGG2ilqovL-34" value="nombre" style="ellipse;whiteSpace=wrap;html=1;align=center;" vertex="1" parent="1">
          <mxGeometry x="620" y="400" width="100" height="40" as="geometry" />
        </mxCell>
        <mxCell id="fBPJly0HdnSGG2ilqovL-35" value="idEquipo" style="ellipse;whiteSpace=wrap;html=1;align=center;fontStyle=4;" vertex="1" parent="1">
          <mxGeometry x="620" y="460" width="100" height="40" as="geometry" />
        </mxCell>
        <mxCell id="fBPJly0HdnSGG2ilqovL-36" value="anioFundacion" style="ellipse;whiteSpace=wrap;html=1;align=center;" vertex="1" parent="1">
          <mxGeometry x="620" y="220" width="100" height="40" as="geometry" />
        </mxCell>
        <mxCell id="fBPJly0HdnSGG2ilqovL-58" style="edgeStyle=orthogonalEdgeStyle;rounded=1;orthogonalLoop=1;jettySize=auto;html=1;exitX=0.5;exitY=1;exitDx=0;exitDy=0;entryX=0.5;entryY=0;entryDx=0;entryDy=0;curved=0;endArrow=none;endFill=0;" edge="1" parent="1" source="fBPJly0HdnSGG2ilqovL-44" target="fBPJly0HdnSGG2ilqovL-1">
          <mxGeometry relative="1" as="geometry">
            <Array as="points">
              <mxPoint x="610" y="110" />
              <mxPoint x="610" y="140" />
              <mxPoint x="480" y="140" />
            </Array>
          </mxGeometry>
        </mxCell>
        <mxCell id="fBPJly0HdnSGG2ilqovL-44" value="idPartido" style="ellipse;whiteSpace=wrap;html=1;align=center;fontStyle=4;" vertex="1" parent="1">
          <mxGeometry x="570" y="70" width="100" height="40" as="geometry" />
        </mxCell>
        <mxCell id="fBPJly0HdnSGG2ilqovL-56" style="edgeStyle=orthogonalEdgeStyle;rounded=1;orthogonalLoop=1;jettySize=auto;html=1;exitX=0.5;exitY=1;exitDx=0;exitDy=0;entryX=0.5;entryY=0;entryDx=0;entryDy=0;curved=0;endArrow=none;endFill=0;" edge="1" parent="1" source="fBPJly0HdnSGG2ilqovL-45" target="fBPJly0HdnSGG2ilqovL-1">
          <mxGeometry relative="1" as="geometry" />
        </mxCell>
        <mxCell id="fBPJly0HdnSGG2ilqovL-45" value="golesFuera" style="ellipse;whiteSpace=wrap;html=1;align=center;" vertex="1" parent="1">
          <mxGeometry x="350" y="70" width="100" height="40" as="geometry" />
        </mxCell>
        <mxCell id="fBPJly0HdnSGG2ilqovL-57" style="edgeStyle=orthogonalEdgeStyle;rounded=1;orthogonalLoop=1;jettySize=auto;html=1;exitX=0.5;exitY=1;exitDx=0;exitDy=0;entryX=0.5;entryY=0;entryDx=0;entryDy=0;curved=0;endArrow=none;endFill=0;" edge="1" parent="1" source="fBPJly0HdnSGG2ilqovL-46" target="fBPJly0HdnSGG2ilqovL-1">
          <mxGeometry relative="1" as="geometry" />
        </mxCell>
        <mxCell id="fBPJly0HdnSGG2ilqovL-46" value="golesCasa" style="ellipse;whiteSpace=wrap;html=1;align=center;" vertex="1" parent="1">
          <mxGeometry x="460" y="70" width="100" height="40" as="geometry" />
        </mxCell>
        <mxCell id="fBPJly0HdnSGG2ilqovL-55" style="edgeStyle=orthogonalEdgeStyle;rounded=1;orthogonalLoop=1;jettySize=auto;html=1;exitX=1;exitY=0.5;exitDx=0;exitDy=0;entryX=0;entryY=0.5;entryDx=0;entryDy=0;curved=0;endArrow=none;endFill=0;" edge="1" parent="1" source="fBPJly0HdnSGG2ilqovL-47" target="fBPJly0HdnSGG2ilqovL-1">
          <mxGeometry relative="1" as="geometry" />
        </mxCell>
        <mxCell id="fBPJly0HdnSGG2ilqovL-47" value="fecha" style="ellipse;whiteSpace=wrap;html=1;align=center;" vertex="1" parent="1">
          <mxGeometry x="250" y="120" width="100" height="40" as="geometry" />
        </mxCell>
        <mxCell id="fBPJly0HdnSGG2ilqovL-53" style="edgeStyle=orthogonalEdgeStyle;rounded=1;orthogonalLoop=1;jettySize=auto;html=1;exitX=1;exitY=0.5;exitDx=0;exitDy=0;entryX=0.5;entryY=1;entryDx=0;entryDy=0;curved=0;endArrow=none;endFill=0;" edge="1" parent="1" source="fBPJly0HdnSGG2ilqovL-48" target="fBPJly0HdnSGG2ilqovL-47">
          <mxGeometry relative="1" as="geometry" />
        </mxCell>
        <mxCell id="fBPJly0HdnSGG2ilqovL-48" value="anio" style="ellipse;whiteSpace=wrap;html=1;align=center;" vertex="1" parent="1">
          <mxGeometry x="120" y="180" width="100" height="40" as="geometry" />
        </mxCell>
        <mxCell id="fBPJly0HdnSGG2ilqovL-51" style="edgeStyle=orthogonalEdgeStyle;rounded=1;orthogonalLoop=1;jettySize=auto;html=1;exitX=1;exitY=0.5;exitDx=0;exitDy=0;entryX=0;entryY=0.5;entryDx=0;entryDy=0;curved=0;endArrow=none;endFill=0;" edge="1" parent="1" source="fBPJly0HdnSGG2ilqovL-49" target="fBPJly0HdnSGG2ilqovL-47">
          <mxGeometry relative="1" as="geometry" />
        </mxCell>
        <mxCell id="fBPJly0HdnSGG2ilqovL-49" value="mes" style="ellipse;whiteSpace=wrap;html=1;align=center;" vertex="1" parent="1">
          <mxGeometry x="120" y="120" width="100" height="40" as="geometry" />
        </mxCell>
        <mxCell id="fBPJly0HdnSGG2ilqovL-52" style="edgeStyle=orthogonalEdgeStyle;rounded=1;orthogonalLoop=1;jettySize=auto;html=1;exitX=1;exitY=0.5;exitDx=0;exitDy=0;entryX=0.5;entryY=0;entryDx=0;entryDy=0;curved=0;endArrow=none;endFill=0;" edge="1" parent="1" source="fBPJly0HdnSGG2ilqovL-50" target="fBPJly0HdnSGG2ilqovL-47">
          <mxGeometry relative="1" as="geometry" />
        </mxCell>
        <mxCell id="fBPJly0HdnSGG2ilqovL-50" value="dia" style="ellipse;whiteSpace=wrap;html=1;align=center;" vertex="1" parent="1">
          <mxGeometry x="120" y="60" width="100" height="40" as="geometry" />
        </mxCell>
        <mxCell id="fBPJly0HdnSGG2ilqovL-68" style="edgeStyle=orthogonalEdgeStyle;rounded=1;orthogonalLoop=1;jettySize=auto;html=1;exitX=0.5;exitY=0;exitDx=0;exitDy=0;entryX=0.5;entryY=1;entryDx=0;entryDy=0;curved=0;endArrow=none;endFill=0;" edge="1" parent="1" source="fBPJly0HdnSGG2ilqovL-59" target="fBPJly0HdnSGG2ilqovL-4">
          <mxGeometry relative="1" as="geometry" />
        </mxCell>
        <mxCell id="fBPJly0HdnSGG2ilqovL-59" value="rfc" style="ellipse;whiteSpace=wrap;html=1;align=center;fontStyle=4;" vertex="1" parent="1">
          <mxGeometry x="740" y="660" width="100" height="40" as="geometry" />
        </mxCell>
        <mxCell id="fBPJly0HdnSGG2ilqovL-67" style="edgeStyle=orthogonalEdgeStyle;rounded=1;orthogonalLoop=1;jettySize=auto;html=1;exitX=0.5;exitY=0;exitDx=0;exitDy=0;entryX=0.5;entryY=1;entryDx=0;entryDy=0;curved=0;endArrow=none;endFill=0;" edge="1" parent="1" source="fBPJly0HdnSGG2ilqovL-60" target="fBPJly0HdnSGG2ilqovL-4">
          <mxGeometry relative="1" as="geometry" />
        </mxCell>
        <mxCell id="fBPJly0HdnSGG2ilqovL-60" value="nombre" style="ellipse;whiteSpace=wrap;html=1;align=center;" vertex="1" parent="1">
          <mxGeometry x="630" y="660" width="100" height="40" as="geometry" />
        </mxCell>
        <mxCell id="fBPJly0HdnSGG2ilqovL-66" style="edgeStyle=orthogonalEdgeStyle;rounded=1;orthogonalLoop=1;jettySize=auto;html=1;exitX=0.5;exitY=0;exitDx=0;exitDy=0;entryX=0.5;entryY=1;entryDx=0;entryDy=0;curved=0;endArrow=none;endFill=0;" edge="1" parent="1" source="fBPJly0HdnSGG2ilqovL-61" target="fBPJly0HdnSGG2ilqovL-4">
          <mxGeometry relative="1" as="geometry" />
        </mxCell>
        <mxCell id="fBPJly0HdnSGG2ilqovL-61" value="apellidoPat" style="ellipse;whiteSpace=wrap;html=1;align=center;" vertex="1" parent="1">
          <mxGeometry x="520" y="660" width="100" height="40" as="geometry" />
        </mxCell>
        <mxCell id="fBPJly0HdnSGG2ilqovL-65" style="edgeStyle=orthogonalEdgeStyle;rounded=1;orthogonalLoop=1;jettySize=auto;html=1;exitX=0.5;exitY=0;exitDx=0;exitDy=0;entryX=0.5;entryY=1;entryDx=0;entryDy=0;curved=0;endArrow=none;endFill=0;" edge="1" parent="1" source="fBPJly0HdnSGG2ilqovL-62" target="fBPJly0HdnSGG2ilqovL-4">
          <mxGeometry relative="1" as="geometry" />
        </mxCell>
        <mxCell id="fBPJly0HdnSGG2ilqovL-62" value="apellidoMat" style="ellipse;whiteSpace=wrap;html=1;align=center;" vertex="1" parent="1">
          <mxGeometry x="410" y="660" width="100" height="40" as="geometry" />
        </mxCell>
        <mxCell id="fBPJly0HdnSGG2ilqovL-64" style="edgeStyle=orthogonalEdgeStyle;rounded=1;orthogonalLoop=1;jettySize=auto;html=1;exitX=0.5;exitY=0;exitDx=0;exitDy=0;entryX=0.5;entryY=1;entryDx=0;entryDy=0;curved=0;endArrow=none;endFill=0;" edge="1" parent="1" source="fBPJly0HdnSGG2ilqovL-63" target="fBPJly0HdnSGG2ilqovL-4">
          <mxGeometry relative="1" as="geometry" />
        </mxCell>
        <mxCell id="fBPJly0HdnSGG2ilqovL-63" value="fechaNacimiento" style="ellipse;whiteSpace=wrap;html=1;align=center;" vertex="1" parent="1">
          <mxGeometry x="300" y="660" width="100" height="40" as="geometry" />
        </mxCell>
      </root>
    </mxGraphModel>
  </diagram>
</mxfile>
